<svg width="491" height="284" xmlns="http://www.w3.org/2000/svg" xmlns:xlink="http://www.w3.org/1999/xlink" overflow="hidden"><defs><clipPath id="clip0"><rect x="0" y="0" width="491" height="284"/></clipPath></defs><g clip-path="url(#clip0)"><rect x="0" y="0" width="491" height="283.692" fill="#FFFFFF"/><path d="M-0.999322 203-0.999322 6.66205 0.999322 6.66205 0.999322 203ZM-3.99729 7.99457 0 0 3.99729 7.99457Z" fill="#172C51" transform="matrix(-1 0 0 1.00244 38 32.0782)"/><path d="M37 234.573 411.338 234.573 411.338 236.576 37 236.576ZM410.005 231.567 418 235.574 410.005 239.581Z" fill="#172C51"/><path d="M48.5 201.992C53.9915 166.397 66.5 48.0365 93.6525 45.6397 120.805 43.2429 129.653 193.068 160.161 196.791 190.669 200.514 298.797 95.2712 408.5 78.9909" stroke="#00B050" stroke-width="2.99796" stroke-miterlimit="8" fill="none" fill-rule="evenodd"/><text font-family="Calibri,Calibri_MSFontService,sans-serif" font-weight="700" font-size="14.6925" transform="matrix(-1.83697e-16 -1.00489 0.997562 -1.84146e-16 13.8739 172)">confidence</text><text fill="#0000FF" font-family="Yu Gothic,Yu Gothic_MSFontService,sans-serif" font-weight="700" font-size="14.6925" transform="matrix(-1.83697e-16 -1.00489 0.997562 -1.84146e-16 30.8307 151)">自信</text><text fill="#0000FF" font-family="Yu Gothic,Yu Gothic_MSFontService,sans-serif" font-weight="700" font-size="14.6925" transform="matrix(1 0 0 1.00244 16.011 223)">低</text><text fill="#0000FF" font-family="Yu Gothic,Yu Gothic_MSFontService,sans-serif" font-weight="700" font-size="14.6925" transform="matrix(1 0 0 1.00244 16.011 58)">高</text><text font-family="Calibri,Calibri_MSFontService,sans-serif" font-weight="700" font-size="14.6925" transform="matrix(1 0 0 1.00244 55.0799 255)">know</text><text font-family="Calibri,Calibri_MSFontService,sans-serif" font-weight="700" font-size="14.6925" transform="matrix(1 0 0 1.00244 88.7237 255)">-</text><text font-family="Calibri,Calibri_MSFontService,sans-serif" font-weight="700" font-size="14.6925" transform="matrix(1 0 0 1.00244 93.2206 255)">nothing</text><text fill="#0000FF" font-family="Yu Gothic,Yu Gothic_MSFontService,sans-serif" font-weight="700" font-size="14.6925" transform="matrix(1 0 0 1.00244 83.0609 272)">無知</text><text font-family="Calibri,Calibri_MSFontService,sans-serif" font-weight="700" font-size="14.6925" transform="matrix(1 0 0 1.00244 244.733 254)">wisdom</text><text fill="#0000FF" font-family="Yu Gothic,Yu Gothic_MSFontService,sans-serif" font-weight="700" font-size="14.6925" transform="matrix(1 0 0 1.00244 254.147 271)">知恵</text><text font-family="Calibri,Calibri_MSFontService,sans-serif" font-weight="700" font-size="14.6925" transform="matrix(1 0 0 1.00244 374.955 253)">guru</text><text fill="#0000FF" font-family="Yu Gothic,Yu Gothic_MSFontService,sans-serif" font-weight="700" font-size="14.6925" transform="matrix(1 0 0 1.00244 374.208 270)">導師</text><text font-family="Calibri,Calibri_MSFontService,sans-serif" font-weight="700" font-size="14.6925" transform="matrix(1 0 0 1.00244 26.8731 22)">Peak of Mount</text><text font-family="Calibri,Calibri_MSFontService,sans-serif" font-weight="700" font-size="14.6925" transform="matrix(1 0 0 1.00244 120.143 22)">Stupid</text><text fill="#0000FF" font-family="Yu Gothic,Yu Gothic_MSFontService,sans-serif" font-weight="700" font-size="14.6925" transform="matrix(1 0 0 1.00244 63.848 39)">バカの山</text><text font-family="Calibri,Calibri_MSFontService,sans-serif" font-weight="700" font-size="14.6925" transform="matrix(1 0 0 1.00244 118.601 212)">Valley of Dispair</text><text fill="#0000FF" font-family="Yu Gothic,Yu Gothic_MSFontService,sans-serif" font-weight="700" font-size="14.6925" transform="matrix(1 0 0 1.00244 138.834 229)">絶望の谷</text><text font-family="Calibri,Calibri_MSFontService,sans-serif" font-weight="700" font-size="14.6925" transform="matrix(0.866025 -0.502447 0.498781 0.868142 236.785 174)">Slope</text><text font-family="Calibri,Calibri_MSFontService,sans-serif" font-weight="700" font-size="14.6925" transform="matrix(0.866025 -0.502447 0.498781 0.868142 268.807 155)">of Enlightment</text><text fill="#0000FF" font-family="Yu Gothic,Yu Gothic_MSFontService,sans-serif" font-weight="700" font-size="14.6925" transform="matrix(0.866025 -0.502447 0.498781 0.868142 275.046 172)">啓蒙の坂</text><text font-family="Calibri,Calibri_MSFontService,sans-serif" font-weight="700" font-size="14.6925" transform="matrix(1 0 0 1.00244 334.731 55)">Plateau of Sustainability</text><text fill="#0000FF" font-family="Yu Gothic,Yu Gothic_MSFontService,sans-serif" font-weight="700" font-size="14.6925" transform="matrix(1 0 0 1.00244 372.039 72)">継続の大地</text></g></svg>